<svg width="76" height="92" viewBox="0 0 76 92" fill="none" xmlns="http://www.w3.org/2000/svg">
<path fill-rule="evenodd" clip-rule="evenodd" d="M66.6036 30.518V17.0972H64.5701V24.9269C64.5887 26.7774 64.098 28.5974 63.1518 30.1877C63.1362 30.2138 63.1231 30.2412 63.1129 30.2698C62.969 30.5159 62.8157 30.7641 62.6531 31.0145C61.9148 32.1349 59.2337 35.0859 57.1052 37.1928L51.1686 43.0862L48.5263 40.4439L53.6598 35.3147C54.3869 34.6492 55.0195 33.8873 55.5401 33.0502C56.1877 31.9838 57.1958 30.4597 57.1678 26.1595L57.1224 19.1868L38.1256 0L18.9625 19.4286L18.8373 26.043C18.7552 30.3345 20.0742 32.3033 20.4649 32.9358C20.5646 33.1301 20.6847 33.3132 20.8233 33.482L36.9728 49.6293L34.2679 52.3364L26.8958 45.0291L26.0129 44.1656L24.9227 43.0862L18.8955 37.0763C16.7692 34.9693 14.6407 32.8603 13.3498 30.898C13.2526 30.749 13.1576 30.6001 13.0648 30.4468C11.9682 28.6529 11.3702 26.9453 11.3702 24.8125V16.9849H9.3928V28.8385C9.3928 31.347 9.34315 32.3227 9.53312 35.3493C9.72308 38.3758 10.5024 41.1779 11.1608 42.2421C11.6814 43.0785 12.314 43.8397 13.0411 44.5045L18.2652 49.7308L15.5085 52.4875L9.48562 46.4948C7.37654 44.4052 4.66301 41.3981 3.9571 40.3446C2.67265 38.3866 2.06605 36.5776 2.04878 34.2764L2.03583 31.7183V25.4234H0.00661714V39.0234C0.00661714 41.1584 -0.0430322 41.6139 0.129667 44.6146C0.302365 47.6152 1.08598 50.5878 1.73361 51.6564C2.25484 52.4929 2.8882 53.2541 3.61602 53.9187L9.9368 60.2352L24.7608 45.4133L27.4657 48.1182L10.1527 65.4334L10.1052 65.3881L5.81361 69.6537C9.48346 69.671 13.1317 69.6904 15.3531 69.7401C15.8409 69.7401 18.8869 69.9365 20.4909 68.3304L24.6982 64.1252L27.4031 66.8323L15.2775 78.9579C18.8826 78.9752 22.4661 78.9946 24.6551 79.0442C25.3912 79.0593 28.5041 79.1522 30.0044 77.6519L35.3883 72.268L35.3581 72.2356L38.0543 69.5372L38.0867 69.5695L43.5332 64.1209L46.2402 66.8323L38.091 74.9793L33.7584 79.3141C32.6696 80.4101 32.0584 81.8923 32.0584 83.4373C32.0584 84.9822 32.6696 86.4644 33.7584 87.5604L37.8816 91.6836L42.2574 87.3079C43.3358 86.2234 43.9412 84.7562 43.9412 83.2268C43.9412 81.6974 43.3358 80.2301 42.2574 79.1457L39.3863 76.2767L42.102 73.5632L46.1409 77.6022C47.5679 79.0291 50.603 78.9449 51.3543 78.9298C53.5735 78.8802 57.2347 78.8607 60.8937 78.8413L39.3604 57.4245L42.0674 54.7175L55.3976 68.0476C56.6497 69.3019 60.1209 69.6365 60.6584 69.6235C62.8668 69.576 66.487 69.5566 70.1331 69.5393L58.1306 57.5368L60.8355 54.8297L66.2129 60.2071L72.3868 54.031C73.1134 53.3657 73.746 52.6046 74.2671 51.7686C74.9147 50.7001 75.7178 47.5483 75.8818 44.716C76.0459 41.8838 75.9876 42.063 75.9984 40.4698C75.9984 40.2863 75.9984 40.1028 75.9984 39.9193V25.4213H73.9649V31.8284L73.9541 34.3865C73.9671 36.2676 73.4622 38.116 72.4948 39.7294C72.3523 39.9798 72.2012 40.2215 72.0436 40.4612C70.7484 42.404 68.635 44.511 66.5194 46.6071L51.2895 61.7808L48.5782 59.0738L62.9575 44.6103C63.6853 43.9456 64.3187 43.1844 64.8399 42.3479C65.4875 41.2793 66.2906 38.2938 66.4676 35.4551C66.6446 32.6163 66.595 32.3875 66.6058 30.5116L66.6036 30.518ZM37.1153 30.8764L31.4875 25.2507L38.0004 18.7378L44.7183 25.4536L35.3171 34.8528L35.3322 34.8657L29.8576 40.3403L32.5625 43.0452L47.7989 27.8887C48.5501 27.1439 49.31 26.4013 50.0159 25.663L38.1212 13.7684L26.1597 25.7278C26.8203 26.4078 27.5111 27.09 28.1997 27.7721L34.2247 33.7648L37.1153 30.8764ZM50.0677 44.1785L41.966 36.0789L39.2611 38.7838L52.9366 52.4594L55.6415 49.7524L50.0677 44.1785ZM29.8015 59.0112L43.4771 45.3356L46.2035 48.0513L32.5172 61.7161L29.8101 59.0112H29.8015ZM28.6142 65.537L20.5535 57.4483L23.2605 54.7412L36.9339 68.4168L34.229 71.1217L28.6163 65.537H28.6142Z" fill="white"/>
</svg>
