<svg width="56" height="45" viewBox="0 0 56 45" fill="none" xmlns="http://www.w3.org/2000/svg">
<path d="M13.8999 14.3005L3.94602 22.595L13.8999 30.8896C14.0435 31.0072 14.1623 31.1521 14.2496 31.3159C14.3369 31.4798 14.3909 31.6592 14.4085 31.844C14.4261 32.0288 14.4069 32.2152 14.3521 32.3926C14.2973 32.5699 14.2079 32.7346 14.0891 32.8772C13.9703 33.0199 13.8244 33.1376 13.6599 33.2235C13.4954 33.3095 13.3155 33.3621 13.1306 33.3782C12.9457 33.3943 12.7594 33.3736 12.5825 33.3174C12.4056 33.2611 12.2416 33.1704 12.0999 33.0505L0.84993 23.6755C0.691505 23.5435 0.564041 23.3783 0.476567 23.1916C0.389093 23.0049 0.34375 22.8012 0.34375 22.595C0.34375 22.3888 0.389093 22.1852 0.476567 21.9984C0.564041 21.8117 0.691505 21.6465 0.84993 21.5146L12.0999 12.1396C12.3869 11.9044 12.7552 11.7921 13.1245 11.8273C13.4938 11.8624 13.8343 12.0421 14.0718 12.3272C14.3093 12.6123 14.4244 12.9796 14.3922 13.3492C14.36 13.7188 14.1831 14.0608 13.8999 14.3005ZM55.1499 21.5146L43.8999 12.1396C43.7583 12.0196 43.5943 11.9289 43.4174 11.8727C43.2405 11.8164 43.0542 11.7958 42.8693 11.8119C42.6844 11.828 42.5045 11.8805 42.3399 11.9665C42.1754 12.0525 42.0296 12.1702 41.9108 12.3128C41.792 12.4554 41.7026 12.6201 41.6478 12.7975C41.593 12.9748 41.5738 13.1613 41.5914 13.346C41.6089 13.5308 41.6629 13.7103 41.7502 13.8741C41.8375 14.0379 41.9564 14.1828 42.0999 14.3005L52.0538 22.595L42.0999 30.8896C41.9564 31.0072 41.8375 31.1521 41.7502 31.3159C41.6629 31.4798 41.6089 31.6592 41.5914 31.844C41.5738 32.0288 41.593 32.2152 41.6478 32.3926C41.7026 32.5699 41.792 32.7346 41.9108 32.8772C42.0296 33.0199 42.1754 33.1376 42.3399 33.2235C42.5045 33.3095 42.6844 33.3621 42.8693 33.3782C43.0542 33.3943 43.2405 33.3736 43.4174 33.3174C43.5943 33.2611 43.7583 33.1704 43.8999 33.0505L55.1499 23.6755C55.3083 23.5435 55.4358 23.3783 55.5233 23.1916C55.6108 23.0049 55.6561 22.8012 55.6561 22.595C55.6561 22.3888 55.6108 22.1852 55.5233 21.9984C55.4358 21.8117 55.3083 21.6465 55.1499 21.5146ZM35.9804 0.655179C35.8065 0.592167 35.6219 0.564074 35.4372 0.572508C35.2524 0.580942 35.0711 0.625739 34.9037 0.704331C34.7363 0.782924 34.586 0.893771 34.4615 1.03052C34.337 1.16727 34.2407 1.32724 34.1781 1.50127L19.1781 42.7513C19.0548 43.1019 19.0753 43.4871 19.2352 43.8226C19.395 44.1581 19.6812 44.4168 20.0312 44.5419C20.1817 44.5958 20.3401 44.6243 20.4999 44.6263C20.7887 44.6263 21.0704 44.5375 21.3069 44.3719C21.5434 44.2062 21.7232 43.9718 21.8218 43.7005L36.8218 2.45049C36.8849 2.2769 36.9132 2.09258 36.9051 1.90805C36.897 1.72351 36.8526 1.54239 36.7745 1.37502C36.6963 1.20765 36.586 1.05731 36.4497 0.93259C36.3135 0.807872 36.154 0.711218 35.9804 0.648148V0.655179Z" fill="#0D0D0D" fill-opacity="0.55"/>
</svg>
