<svg width="588" height="924" viewBox="0 0 588 924" fill="none" xmlns="http://www.w3.org/2000/svg">
<g opacity="0.5">
<mask id="path-1-inside-1_20_386" fill="white">
<path fill-rule="evenodd" clip-rule="evenodd" d="M888.632 257.091V78.0653H861.5V182.509C861.749 207.193 855.202 231.47 842.577 252.685C842.369 253.032 842.195 253.398 842.059 253.779C840.139 257.062 838.094 260.374 835.924 263.714C826.074 278.659 790.301 318.023 761.903 346.128L682.697 424.742L647.443 389.495L715.934 321.076C725.635 312.197 734.076 302.034 741.021 290.869C749.662 276.643 763.112 256.313 762.738 198.951L762.133 105.94L508.675 -150L252.999 109.165L251.329 197.396C250.234 254.643 267.832 280.905 273.045 289.342C274.374 291.935 275.977 294.377 277.826 296.628L493.295 512.023L457.206 548.133L358.847 450.658L347.067 439.14L332.522 424.742L252.106 344.573C223.736 316.468 195.337 288.335 178.114 262.159C176.818 260.172 175.55 258.185 174.312 256.14C159.68 232.211 151.702 209.433 151.702 180.983V76.5679H125.32V234.687C125.32 268.148 124.657 281.164 127.192 321.536C129.726 361.909 140.124 399.286 148.909 413.482C155.854 424.639 164.295 434.793 173.995 443.661L243.696 513.376L206.916 550.149L126.558 470.211C98.4185 442.336 62.2143 402.223 52.796 388.171C35.6588 362.053 27.5654 337.921 27.335 307.225L27.1622 273.101V189.132H0.0882865V370.547C0.0882865 399.027 -0.57414 405.103 1.73002 445.129C4.03419 485.156 14.4893 524.808 23.1299 539.062C30.0843 550.221 38.5346 560.375 48.2453 569.241L132.578 653.498L330.361 455.784L366.45 491.865L135.458 722.839L134.824 722.234L77.5658 779.136C126.529 779.366 175.205 779.625 204.842 780.287C211.351 780.287 251.991 782.908 273.391 761.484L329.526 705.389L365.615 741.499L203.834 903.247C251.933 903.477 299.745 903.736 328.95 904.399C338.772 904.6 380.304 905.839 400.322 885.825L472.154 814.008L471.751 813.576L507.724 777.581L508.157 778.013L580.824 705.331L616.942 741.499L508.214 850.176L450.408 907.998C435.88 922.618 427.727 942.39 427.727 962.999C427.727 983.608 435.88 1003.38 450.408 1018L505.42 1073L563.802 1014.63C578.191 1000.16 586.268 980.593 586.268 960.191C586.268 939.79 578.191 920.218 563.802 905.752L525.495 867.482L561.728 831.285L615.617 885.163C634.655 904.197 675.151 903.074 685.174 902.873C714.782 902.21 763.631 901.951 812.45 901.692L525.15 616.006L561.268 579.895L739.12 757.711C755.825 774.442 802.139 778.905 809.311 778.732C838.775 778.099 887.076 777.84 935.723 777.609L775.584 617.503L811.673 581.393L883.418 653.124L965.792 570.738C975.486 561.864 983.926 551.711 990.879 540.56C999.52 526.306 1010.23 484.263 1012.42 446.483C1014.61 408.702 1013.83 411.092 1013.98 389.841C1013.98 387.393 1013.98 384.945 1013.98 382.498V189.103H986.847V274.57L986.703 308.693C986.876 333.786 980.14 358.443 967.232 379.964C965.331 383.304 963.315 386.529 961.213 389.726C943.932 415.642 915.734 443.747 887.508 471.708L684.31 674.116L648.135 638.006L839.985 445.072C849.696 436.206 858.146 426.052 865.1 414.893C873.741 400.639 884.455 360.814 886.817 322.947C889.179 285.081 888.516 282.028 888.66 257.004L888.632 257.091ZM495.196 261.871L420.109 186.828L507.004 99.9503L596.636 189.535L471.204 314.913L471.405 315.086L398.363 388.113L434.452 424.195L637.737 222.017C647.76 212.082 657.898 202.177 667.317 192.328L508.617 33.6617L349.025 193.192C357.839 202.263 367.055 211.362 376.243 220.462L456.63 300.4L495.196 261.871ZM668.008 439.313L559.914 331.27L523.825 367.351L706.286 549.774L742.375 513.664L668.008 439.313ZM397.614 637.171L580.075 454.747L616.452 490.973L433.847 673.252L397.729 637.171H397.614ZM381.773 724.221L274.226 616.322L310.344 580.212L492.776 762.635L456.687 798.717L381.802 724.221H381.773Z"/>
</mask>
<path fill-rule="evenodd" clip-rule="evenodd" d="M888.632 257.091V78.0653H861.5V182.509C861.749 207.193 855.202 231.47 842.577 252.685C842.369 253.032 842.195 253.398 842.059 253.779C840.139 257.062 838.094 260.374 835.924 263.714C826.074 278.659 790.301 318.023 761.903 346.128L682.697 424.742L647.443 389.495L715.934 321.076C725.635 312.197 734.076 302.034 741.021 290.869C749.662 276.643 763.112 256.313 762.738 198.951L762.133 105.94L508.675 -150L252.999 109.165L251.329 197.396C250.234 254.643 267.832 280.905 273.045 289.342C274.374 291.935 275.977 294.377 277.826 296.628L493.295 512.023L457.206 548.133L358.847 450.658L347.067 439.14L332.522 424.742L252.106 344.573C223.736 316.468 195.337 288.335 178.114 262.159C176.818 260.172 175.55 258.185 174.312 256.14C159.68 232.211 151.702 209.433 151.702 180.983V76.5679H125.32V234.687C125.32 268.148 124.657 281.164 127.192 321.536C129.726 361.909 140.124 399.286 148.909 413.482C155.854 424.639 164.295 434.793 173.995 443.661L243.696 513.376L206.916 550.149L126.558 470.211C98.4185 442.336 62.2143 402.223 52.796 388.171C35.6588 362.053 27.5654 337.921 27.335 307.225L27.1622 273.101V189.132H0.0882865V370.547C0.0882865 399.027 -0.57414 405.103 1.73002 445.129C4.03419 485.156 14.4893 524.808 23.1299 539.062C30.0843 550.221 38.5346 560.375 48.2453 569.241L132.578 653.498L330.361 455.784L366.45 491.865L135.458 722.839L134.824 722.234L77.5658 779.136C126.529 779.366 175.205 779.625 204.842 780.287C211.351 780.287 251.991 782.908 273.391 761.484L329.526 705.389L365.615 741.499L203.834 903.247C251.933 903.477 299.745 903.736 328.95 904.399C338.772 904.6 380.304 905.839 400.322 885.825L472.154 814.008L471.751 813.576L507.724 777.581L508.157 778.013L580.824 705.331L616.942 741.499L508.214 850.176L450.408 907.998C435.88 922.618 427.727 942.39 427.727 962.999C427.727 983.608 435.88 1003.38 450.408 1018L505.42 1073L563.802 1014.63C578.191 1000.16 586.268 980.593 586.268 960.191C586.268 939.79 578.191 920.218 563.802 905.752L525.495 867.482L561.728 831.285L615.617 885.163C634.655 904.197 675.151 903.074 685.174 902.873C714.782 902.21 763.631 901.951 812.45 901.692L525.15 616.006L561.268 579.895L739.12 757.711C755.825 774.442 802.139 778.905 809.311 778.732C838.775 778.099 887.076 777.84 935.723 777.609L775.584 617.503L811.673 581.393L883.418 653.124L965.792 570.738C975.486 561.864 983.926 551.711 990.879 540.56C999.52 526.306 1010.23 484.263 1012.42 446.483C1014.61 408.702 1013.83 411.092 1013.98 389.841C1013.98 387.393 1013.98 384.945 1013.98 382.498V189.103H986.847V274.57L986.703 308.693C986.876 333.786 980.14 358.443 967.232 379.964C965.331 383.304 963.315 386.529 961.213 389.726C943.932 415.642 915.734 443.747 887.508 471.708L684.31 674.116L648.135 638.006L839.985 445.072C849.696 436.206 858.146 426.052 865.1 414.893C873.741 400.639 884.455 360.814 886.817 322.947C889.179 285.081 888.516 282.028 888.66 257.004L888.632 257.091ZM495.196 261.871L420.109 186.828L507.004 99.9503L596.636 189.535L471.204 314.913L471.405 315.086L398.363 388.113L434.452 424.195L637.737 222.017C647.76 212.082 657.898 202.177 667.317 192.328L508.617 33.6617L349.025 193.192C357.839 202.263 367.055 211.362 376.243 220.462L456.63 300.4L495.196 261.871ZM668.008 439.313L559.914 331.27L523.825 367.351L706.286 549.774L742.375 513.664L668.008 439.313ZM397.614 637.171L580.075 454.747L616.452 490.973L433.847 673.252L397.729 637.171H397.614ZM381.773 724.221L274.226 616.322L310.344 580.212L492.776 762.635L456.687 798.717L381.802 724.221H381.773Z" stroke="#D2AF6D" stroke-width="4" mask="url(#path-1-inside-1_20_386)"/>
</g>
</svg>
