<svg width="22" height="22" viewBox="0 0 22 22" fill="none" xmlns="http://www.w3.org/2000/svg">
<path d="M13 4.6C13 4.03995 13 3.75992 13.109 3.54601C13.2049 3.35785 13.3578 3.20487 13.546 3.10899C13.7599 3 14.0399 3 14.6 3H17.4C17.9601 3 18.2401 3 18.454 3.10899C18.6422 3.20487 18.7951 3.35785 18.891 3.54601C19 3.75992 19 4.03995 19 4.6V7.4C19 7.96005 19 8.24008 18.891 8.45399C18.7951 8.64215 18.6422 8.79513 18.454 8.89101C18.2401 9 17.9601 9 17.4 9H14.6C14.0399 9 13.7599 9 13.546 8.89101C13.3578 8.79513 13.2049 8.64215 13.109 8.45399C13 8.24008 13 7.96005 13 7.4V4.6Z" stroke="#FCFAF5" stroke-width="1.56" stroke-linecap="round" stroke-linejoin="round"/>
<path d="M3 4.6C3 4.03995 3 3.75992 3.10899 3.54601C3.20487 3.35785 3.35785 3.20487 3.54601 3.10899C3.75992 3 4.03995 3 4.6 3H7.4C7.96005 3 8.24008 3 8.45399 3.10899C8.64215 3.20487 8.79513 3.35785 8.89101 3.54601C9 3.75992 9 4.03995 9 4.6V7.4C9 7.96005 9 8.24008 8.89101 8.45399C8.79513 8.64215 8.64215 8.79513 8.45399 8.89101C8.24008 9 7.96005 9 7.4 9H4.6C4.03995 9 3.75992 9 3.54601 8.89101C3.35785 8.79513 3.20487 8.64215 3.10899 8.45399C3 8.24008 3 7.96005 3 7.4V4.6Z" stroke="#FCFAF5" stroke-width="1.56" stroke-linecap="round" stroke-linejoin="round"/>
<path d="M3 14.6C3 14.0399 3 13.7599 3.10899 13.546C3.20487 13.3578 3.35785 13.2049 3.54601 13.109C3.75992 13 4.03995 13 4.6 13H7.4C7.96005 13 8.24008 13 8.45399 13.109C8.64215 13.2049 8.79513 13.3578 8.89101 13.546C9 13.7599 9 14.0399 9 14.6V17.4C9 17.9601 9 18.2401 8.89101 18.454C8.79513 18.6422 8.64215 18.7951 8.45399 18.891C8.24008 19 7.96005 19 7.4 19H4.6C4.03995 19 3.75992 19 3.54601 18.891C3.35785 18.7951 3.20487 18.6422 3.10899 18.454C3 18.2401 3 17.9601 3 17.4V14.6Z" stroke="#FCFAF5" stroke-width="1.56" stroke-linecap="round" stroke-linejoin="round"/>
<path d="M13 14.6C13 14.0399 13 13.7599 13.109 13.546C13.2049 13.3578 13.3578 13.2049 13.546 13.109C13.7599 13 14.0399 13 14.6 13H17.4C17.9601 13 18.2401 13 18.454 13.109C18.6422 13.2049 18.7951 13.3578 18.891 13.546C19 13.7599 19 14.0399 19 14.6V17.4C19 17.9601 19 18.2401 18.891 18.454C18.7951 18.6422 18.6422 18.7951 18.454 18.891C18.2401 19 17.9601 19 17.4 19H14.6C14.0399 19 13.7599 19 13.546 18.891C13.3578 18.7951 13.2049 18.6422 13.109 18.454C13 18.2401 13 17.9601 13 17.4V14.6Z" stroke="#FCFAF5" stroke-width="1.56" stroke-linecap="round" stroke-linejoin="round"/>
</svg>
