<svg width="56" height="53" viewBox="0 0 56 53" fill="none" xmlns="http://www.w3.org/2000/svg">
<path d="M55.6562 26.595C55.6562 26.9679 55.5081 27.3256 55.2444 27.5893C54.9806 27.8531 54.623 28.0012 54.25 28.0012H49.9398C49.5953 30.5934 48.3218 32.9724 46.3558 34.6966C44.3898 36.4208 41.8649 37.3729 39.25 37.3762H29.4062V43.9387H35.5C37.3648 43.9387 39.1532 44.6795 40.4718 45.9981C41.7905 47.3167 42.5312 49.1052 42.5312 50.97C42.5312 51.3429 42.3831 51.7006 42.1194 51.9643C41.8556 52.2281 41.498 52.3762 41.125 52.3762C40.752 52.3762 40.3944 52.2281 40.1306 51.9643C39.8669 51.7006 39.7188 51.3429 39.7188 50.97C39.7188 49.8511 39.2743 48.778 38.4831 47.9869C37.6919 47.1957 36.6189 46.7512 35.5 46.7512H29.4062V50.97C29.4062 51.3429 29.2581 51.7006 28.9944 51.9643C28.7306 52.2281 28.373 52.3762 28 52.3762C27.627 52.3762 27.2694 52.2281 27.0056 51.9643C26.7419 51.7006 26.5938 51.3429 26.5938 50.97V46.7512H20.5C19.3811 46.7512 18.3081 47.1957 17.5169 47.9869C16.7257 48.778 16.2812 49.8511 16.2812 50.97C16.2812 51.3429 16.1331 51.7006 15.8694 51.9643C15.6056 52.2281 15.248 52.3762 14.875 52.3762C14.502 52.3762 14.1444 52.2281 13.8806 51.9643C13.6169 51.7006 13.4688 51.3429 13.4688 50.97C13.4688 49.1052 14.2095 47.3167 15.5282 45.9981C16.8468 44.6795 18.6352 43.9387 20.5 43.9387H26.5938V37.3762H16.75C14.1351 37.3729 11.6102 36.4208 9.64418 34.6966C7.67819 32.9724 6.40469 30.5934 6.06016 28.0012H1.75C1.37704 28.0012 1.01935 27.8531 0.755631 27.5893C0.491908 27.3256 0.34375 26.9679 0.34375 26.595C0.34375 26.222 0.491908 25.8643 0.755631 25.6006C1.01935 25.3369 1.37704 25.1887 1.75 25.1887H7.375C7.74796 25.1887 8.10565 25.3369 8.36937 25.6006C8.63309 25.8643 8.78125 26.222 8.78125 26.595C8.78125 28.7084 9.62081 30.7353 11.1152 32.2297C12.6097 33.7242 14.6366 34.5637 16.75 34.5637H39.25C41.3634 34.5637 43.3903 33.7242 44.8848 32.2297C46.3792 30.7353 47.2188 28.7084 47.2188 26.595C47.2188 26.222 47.3669 25.8643 47.6306 25.6006C47.8944 25.3369 48.252 25.1887 48.625 25.1887H54.25C54.623 25.1887 54.9806 25.3369 55.2444 25.6006C55.5081 25.8643 55.6562 26.222 55.6562 26.595ZM14.2727 28.7442C13.9638 28.3887 13.7351 27.9709 13.602 27.5192C13.469 27.0674 13.4347 26.5924 13.5016 26.1262L16.7172 3.62622C16.8331 2.84656 17.2245 2.13422 17.8205 1.61828C18.4164 1.10233 19.1774 0.816909 19.9656 0.813721H36.0344C36.8226 0.816909 37.5836 1.10233 38.1795 1.61828C38.7755 2.13422 39.1669 2.84656 39.2828 3.62622L42.4984 26.1262C42.5657 26.592 42.5319 27.0667 42.3995 27.5183C42.2671 27.9699 42.0391 28.3877 41.731 28.7434C41.4228 29.0991 41.0418 29.3843 40.6138 29.5798C40.1857 29.7752 39.7206 29.8763 39.25 29.8762H16.75C16.2801 29.8759 15.8157 29.7747 15.3883 29.5794C14.9609 29.3841 14.5804 29.0993 14.2727 28.7442ZM16.3961 26.902C16.4401 26.9527 16.4944 26.9934 16.5555 27.0213C16.6165 27.0492 16.6829 27.0637 16.75 27.0637H39.25C39.3171 27.0637 39.3835 27.0492 39.4445 27.0213C39.5056 26.9934 39.5599 26.9527 39.6039 26.902C39.6478 26.8514 39.6804 26.7919 39.6994 26.7276C39.7184 26.6633 39.7234 26.5957 39.7141 26.5293L36.4984 4.02935C36.4825 3.91672 36.4262 3.81372 36.3399 3.73955C36.2537 3.66538 36.1434 3.6251 36.0297 3.62622H19.9656C19.8519 3.6251 19.7416 3.66538 19.6554 3.73955C19.5691 3.81372 19.5128 3.91672 19.4969 4.02935L16.2812 26.5293C16.2725 26.5961 16.2783 26.6639 16.2981 26.7282C16.3179 26.7925 16.3513 26.8518 16.3961 26.902Z" fill="#0D0D0D" fill-opacity="0.55"/>
</svg>
