<svg width="56" height="33" viewBox="0 0 56 33" fill="none" xmlns="http://www.w3.org/2000/svg">
<path d="M28 25.5012C29.7615 25.5012 31.4834 24.9789 32.948 24.0002C34.4127 23.0216 35.5542 21.6307 36.2283 20.0032C36.9024 18.3758 37.0788 16.5851 36.7351 14.8574C36.3915 13.1298 35.5432 11.5429 34.2977 10.2973C33.0521 9.05174 31.4652 8.2035 29.7375 7.85985C28.0099 7.5162 26.2191 7.69258 24.5917 8.36667C22.9643 9.04076 21.5734 10.1823 20.5947 11.6469C19.6161 13.1115 19.0938 14.8335 19.0938 16.595C19.0938 18.9571 20.0321 21.2224 21.7023 22.8926C23.3726 24.5629 25.6379 25.5012 28 25.5012ZM28 10.5012C29.2052 10.5012 30.3834 10.8586 31.3855 11.5282C32.3876 12.1978 33.1687 13.1495 33.6299 14.263C34.0911 15.3765 34.2118 16.6017 33.9767 17.7838C33.7415 18.9659 33.1612 20.0517 32.3089 20.9039C31.4567 21.7561 30.3709 22.3365 29.1888 22.5716C28.0068 22.8068 26.7815 22.6861 25.668 22.2249C24.5545 21.7636 23.6028 20.9826 22.9332 19.9805C22.2636 18.9784 21.9062 17.8002 21.9062 16.595C21.9062 14.9788 22.5483 13.4288 23.6911 12.286C24.8339 11.1432 26.3838 10.5012 28 10.5012ZM54.25 0.188721H1.75C1.37704 0.188721 1.01935 0.336879 0.755631 0.600602C0.491908 0.864325 0.34375 1.22201 0.34375 1.59497V31.595C0.34375 31.9679 0.491908 32.3256 0.755631 32.5893C1.01935 32.8531 1.37704 33.0012 1.75 33.0012H54.25C54.623 33.0012 54.9806 32.8531 55.2444 32.5893C55.5081 32.3256 55.6562 31.9679 55.6562 31.595V1.59497C55.6562 1.22201 55.5081 0.864325 55.2444 0.600602C54.9806 0.336879 54.623 0.188721 54.25 0.188721ZM3.15625 12.0997C5.33977 11.5188 7.33112 10.3715 8.9288 8.77377C10.5265 7.17609 11.6738 5.18474 12.2547 3.00122H43.7453C44.3262 5.18474 45.4735 7.17609 47.0712 8.77377C48.6689 10.3715 50.6602 11.5188 52.8438 12.0997V21.0903C50.6602 21.6712 48.6689 22.8185 47.0712 24.4162C45.4735 26.0139 44.3262 28.0052 43.7453 30.1887H12.2547C11.6738 28.0052 10.5265 26.0139 8.9288 24.4162C7.33112 22.8185 5.33977 21.6712 3.15625 21.0903V12.0997ZM52.8438 9.16294C51.4194 8.66536 50.1257 7.85292 49.0589 6.78609C47.9921 5.71926 47.1796 4.42553 46.682 3.00122H52.8438V9.16294ZM9.31797 3.00122C8.82039 4.42553 8.00795 5.71926 6.94112 6.78609C5.87429 7.85292 4.58056 8.66536 3.15625 9.16294V3.00122H9.31797ZM3.15625 24.027C4.58056 24.5246 5.87429 25.337 6.94112 26.4039C8.00795 27.4707 8.82039 28.7644 9.31797 30.1887H3.15625V24.027ZM46.682 30.1887C47.1796 28.7644 47.9921 27.4707 49.0589 26.4039C50.1257 25.337 51.4194 24.5246 52.8438 24.027V30.1887H46.682Z" fill="#0D0D0D" fill-opacity="0.55"/>
</svg>
