<svg width="552" height="1223" viewBox="0 0 552 1223" fill="none" xmlns="http://www.w3.org/2000/svg">
<g opacity="0.2">
<mask id="path-1-inside-1_485_1032" fill="white">
<path d="M40.6619 26.7779C49.4054 1.80425 83.5597 -8.25079 104.599 7.67881C120.692 17.9524 122.714 38.2811 128.397 54.8119C144.491 105.661 157.36 157.712 178.782 206.676C200.586 257.662 228.947 305.833 262.774 349.742C286.982 381.765 315.098 410.482 343.815 438.434C329.716 452.915 315.344 467.178 300.945 481.386C265.834 446.358 231.297 410.783 196.105 375.836C169.874 401.602 143.999 427.75 118.014 453.762C152.988 489.092 188.4 523.984 223.319 559.34C175.612 606.61 128.261 654.262 80.7728 701.751C33.0934 654.399 -14.1761 606.665 -61.8827 559.34C-27.0181 524.038 8.25641 489.119 43.3123 453.981C17.4917 428.16 -8.2742 402.285 -34.1768 376.574C-69.4513 411.384 -104.261 446.658 -139.427 481.605C-153.799 467.479 -167.87 453.079 -182.215 438.953C-108.961 365.234 -49.8878 277.362 -10.3782 181.183C10.7701 131.154 23.9127 78.3101 40.6619 26.7779ZM22.328 293.346C16.5627 315.123 19.0764 339.004 29.4046 359.032C39.323 378.951 57.739 392.339 72.4663 408.433C75.6632 411.247 80.3628 418.898 84.434 412.886C100.992 394.826 122.031 379.825 132.469 357.01C142.36 336.217 143.862 311.735 136.95 289.794C117.769 227.606 99.4892 165.117 79.8163 103.065C61.2091 166.647 41.3177 229.874 22.328 293.346ZM79.9258 491.578C57.7665 514.393 34.842 536.443 12.6827 559.258C35.006 581.309 56.7827 603.987 79.4611 625.627L81.7837 625.764C104.489 604.151 126.184 581.445 148.562 559.45C125.774 536.744 103.697 513.218 79.9258 491.578Z"/>
<path d="M362.072 457.232C409.696 504.666 457.157 552.236 504.672 599.779C464.835 640.245 423.85 679.618 384.641 720.658C424.779 760.55 464.835 800.579 504.727 840.717C457.048 888.069 409.724 935.749 362.126 983.155C328.109 949.246 294.119 915.283 260.237 881.265C272.588 868.833 284.911 856.346 297.479 844.106C318.956 865.582 340.459 887.058 361.935 908.562C384.34 885.637 408.084 863.888 429.451 840.034C401.827 812.711 374.613 785.032 346.935 757.763C311.715 792.601 276.823 827.793 241.74 862.795C194.169 815.307 146.599 767.791 99.1387 720.193C146.709 672.76 194.169 625.217 241.657 577.701C276.959 612.566 311.851 647.786 346.962 682.842C374.285 654.781 403.084 628.086 429.533 599.232C407.101 577.537 385.652 554.777 363.001 533.328L360.869 533.246C339.366 553.957 318.6 575.488 297.315 596.445C284.692 584.314 272.506 571.745 260.046 559.449C293.927 525.24 328.191 491.414 362.072 457.232ZM173.622 720.221C196.219 742.872 218.842 765.496 241.521 788.12C263.926 765.878 286.413 743.692 308.409 721.068V719.456C286.577 696.668 263.789 674.782 241.657 652.267C218.842 674.782 196.301 697.57 173.622 720.221Z"/>
<path d="M467.762 720.139C481.833 706.176 495.769 692.023 509.895 678.088C523.966 692.105 538.092 706.122 552 720.33C537.901 734.265 523.994 748.364 509.867 762.272C495.714 748.337 481.67 734.292 467.762 720.139Z"/>
<path d="M-343.283 599.806C-295.822 552.235 -248.197 504.802 -200.764 457.177C-165.216 492.725 -129.668 528.273 -94.1208 563.821C-106.608 576.171 -118.93 588.658 -131.362 601.008C-154.205 578.165 -177.211 555.487 -199.808 532.398C-223.934 553.574 -245.574 577.619 -268.635 599.997C-241.039 627.676 -213.36 655.272 -185.736 682.951C-150.544 647.895 -115.488 612.675 -80.3224 577.619C-32.7524 625.216 14.8176 672.759 62.3876 720.33C14.7903 767.818 -32.6431 815.47 -80.3498 862.849C-115.46 827.738 -150.489 792.573 -185.709 757.544C-213.442 785.086 -241.039 812.792 -268.635 840.444C-245.957 863.177 -223.224 885.855 -200.545 908.561C-179.014 887.003 -157.484 865.445 -135.871 843.941C-123.329 856.128 -111.061 868.642 -98.6837 881.019C-132.51 915.283 -166.774 949.055 -200.655 983.236C-248.252 935.776 -295.767 888.205 -343.283 840.635C-305.003 802.191 -266.613 763.856 -228.197 725.548C-226.339 723.499 -221.967 720.384 -225.601 717.652C-264.728 678.251 -304.156 639.179 -343.283 599.806ZM-148.385 720.193C-125.816 743.008 -102.974 765.577 -80.3498 788.338C-57.6987 765.687 -35.0202 743.035 -12.3691 720.357C-35.0202 697.596 -57.7806 674.891 -80.4863 652.185C-103.055 674.945 -125.843 697.432 -148.385 720.193Z"/>
<path d="M-392 720.22C-377.874 706.094 -363.775 691.995 -349.676 677.896C-335.495 691.913 -321.478 706.121 -307.27 720.138C-321.342 734.346 -335.441 748.472 -349.676 762.517C-363.83 748.472 -377.928 734.346 -392 720.22Z"/>
<path d="M-61.9027 881.239C-14.3327 833.75 33.1281 786.153 80.7527 738.664C128.241 786.207 175.756 833.723 223.299 881.239C188.216 916.404 153.05 951.487 117.94 986.625C145.618 1014.28 173.242 1041.98 200.948 1069.58C221.796 1048.79 242.562 1027.88 263.464 1007.15C265.377 1005.01 270.104 1001.6 266.278 998.784C245.786 978.073 225.047 957.58 204.5 936.924C216.932 924.546 229.31 912.141 241.687 899.709C275.76 933.618 309.668 967.69 343.686 1001.63C296.17 1049.2 248.655 1096.74 201.085 1144.23C171.767 1115.05 142.667 1085.59 113.24 1056.55C95.6438 1039.74 65.2876 1039.8 47.8553 1056.79C18.6193 1085.86 -10.4801 1115.1 -39.6615 1144.23C-87.2315 1096.74 -134.747 1049.2 -182.262 1001.65C-148.245 967.608 -114.2 933.563 -80.1821 899.545C-67.7226 911.896 -55.3724 924.355 -42.913 936.733C-64.4711 958.373 -86.1112 979.876 -107.642 1001.52C-84.9637 1024.11 -62.3672 1046.85 -39.6615 1069.42C-11.9829 1041.76 15.6684 1014.11 43.2923 986.434C8.23639 951.378 -26.8468 916.322 -61.9027 881.239ZM14.9032 878.998C11.1599 881.676 16.4062 884.599 17.9363 886.703C38.866 907.469 59.659 928.372 80.5067 949.192C103.267 926.541 125.973 903.808 148.651 881.047C126 858.423 103.349 835.799 80.7527 813.121C58.7847 835.062 36.762 856.975 14.9032 878.998Z"/>
<path d="M35.1139 1112.59C47.6826 1103.13 59.3224 1089.28 76.5089 1089.74C94.1598 1088.73 106.291 1102.86 119.079 1112.61C119.106 1149.39 119.106 1186.2 119.106 1223C91.0721 1222.95 63.0656 1223.03 35.0865 1222.95C35.1411 1186.17 35.0592 1149.36 35.1139 1112.59Z"/>
</mask>
<path d="M40.6619 26.7779C49.4054 1.80425 83.5597 -8.25079 104.599 7.67881C120.692 17.9524 122.714 38.2811 128.397 54.8119C144.491 105.661 157.36 157.712 178.782 206.676C200.586 257.662 228.947 305.833 262.774 349.742C286.982 381.765 315.098 410.482 343.815 438.434C329.716 452.915 315.344 467.178 300.945 481.386C265.834 446.358 231.297 410.783 196.105 375.836C169.874 401.602 143.999 427.75 118.014 453.762C152.988 489.092 188.4 523.984 223.319 559.34C175.612 606.61 128.261 654.262 80.7728 701.751C33.0934 654.399 -14.1761 606.665 -61.8827 559.34C-27.0181 524.038 8.25641 489.119 43.3123 453.981C17.4917 428.16 -8.2742 402.285 -34.1768 376.574C-69.4513 411.384 -104.261 446.658 -139.427 481.605C-153.799 467.479 -167.87 453.079 -182.215 438.953C-108.961 365.234 -49.8878 277.362 -10.3782 181.183C10.7701 131.154 23.9127 78.3101 40.6619 26.7779ZM22.328 293.346C16.5627 315.123 19.0764 339.004 29.4046 359.032C39.323 378.951 57.739 392.339 72.4663 408.433C75.6632 411.247 80.3628 418.898 84.434 412.886C100.992 394.826 122.031 379.825 132.469 357.01C142.36 336.217 143.862 311.735 136.95 289.794C117.769 227.606 99.4892 165.117 79.8163 103.065C61.2091 166.647 41.3177 229.874 22.328 293.346ZM79.9258 491.578C57.7665 514.393 34.842 536.443 12.6827 559.258C35.006 581.309 56.7827 603.987 79.4611 625.627L81.7837 625.764C104.489 604.151 126.184 581.445 148.562 559.45C125.774 536.744 103.697 513.218 79.9258 491.578Z" stroke="#9D7935" stroke-width="4" mask="url(#path-1-inside-1_485_1032)"/>
<path d="M362.072 457.232C409.696 504.666 457.157 552.236 504.672 599.779C464.835 640.245 423.85 679.618 384.641 720.658C424.779 760.55 464.835 800.579 504.727 840.717C457.048 888.069 409.724 935.749 362.126 983.155C328.109 949.246 294.119 915.283 260.237 881.265C272.588 868.833 284.911 856.346 297.479 844.106C318.956 865.582 340.459 887.058 361.935 908.562C384.34 885.637 408.084 863.888 429.451 840.034C401.827 812.711 374.613 785.032 346.935 757.763C311.715 792.601 276.823 827.793 241.74 862.795C194.169 815.307 146.599 767.791 99.1387 720.193C146.709 672.76 194.169 625.217 241.657 577.701C276.959 612.566 311.851 647.786 346.962 682.842C374.285 654.781 403.084 628.086 429.533 599.232C407.101 577.537 385.652 554.777 363.001 533.328L360.869 533.246C339.366 553.957 318.6 575.488 297.315 596.445C284.692 584.314 272.506 571.745 260.046 559.449C293.927 525.24 328.191 491.414 362.072 457.232ZM173.622 720.221C196.219 742.872 218.842 765.496 241.521 788.12C263.926 765.878 286.413 743.692 308.409 721.068V719.456C286.577 696.668 263.789 674.782 241.657 652.267C218.842 674.782 196.301 697.57 173.622 720.221Z" stroke="#9D7935" stroke-width="4" mask="url(#path-1-inside-1_485_1032)"/>
<path d="M467.762 720.139C481.833 706.176 495.769 692.023 509.895 678.088C523.966 692.105 538.092 706.122 552 720.33C537.901 734.265 523.994 748.364 509.867 762.272C495.714 748.337 481.67 734.292 467.762 720.139Z" stroke="#9D7935" stroke-width="4" mask="url(#path-1-inside-1_485_1032)"/>
<path d="M-343.283 599.806C-295.822 552.235 -248.197 504.802 -200.764 457.177C-165.216 492.725 -129.668 528.273 -94.1208 563.821C-106.608 576.171 -118.93 588.658 -131.362 601.008C-154.205 578.165 -177.211 555.487 -199.808 532.398C-223.934 553.574 -245.574 577.619 -268.635 599.997C-241.039 627.676 -213.36 655.272 -185.736 682.951C-150.544 647.895 -115.488 612.675 -80.3224 577.619C-32.7524 625.216 14.8176 672.759 62.3876 720.33C14.7903 767.818 -32.6431 815.47 -80.3498 862.849C-115.46 827.738 -150.489 792.573 -185.709 757.544C-213.442 785.086 -241.039 812.792 -268.635 840.444C-245.957 863.177 -223.224 885.855 -200.545 908.561C-179.014 887.003 -157.484 865.445 -135.871 843.941C-123.329 856.128 -111.061 868.642 -98.6837 881.019C-132.51 915.283 -166.774 949.055 -200.655 983.236C-248.252 935.776 -295.767 888.205 -343.283 840.635C-305.003 802.191 -266.613 763.856 -228.197 725.548C-226.339 723.499 -221.967 720.384 -225.601 717.652C-264.728 678.251 -304.156 639.179 -343.283 599.806ZM-148.385 720.193C-125.816 743.008 -102.974 765.577 -80.3498 788.338C-57.6987 765.687 -35.0202 743.035 -12.3691 720.357C-35.0202 697.596 -57.7806 674.891 -80.4863 652.185C-103.055 674.945 -125.843 697.432 -148.385 720.193Z" stroke="#9D7935" stroke-width="4" mask="url(#path-1-inside-1_485_1032)"/>
<path d="M-392 720.22C-377.874 706.094 -363.775 691.995 -349.676 677.896C-335.495 691.913 -321.478 706.121 -307.27 720.138C-321.342 734.346 -335.441 748.472 -349.676 762.517C-363.83 748.472 -377.928 734.346 -392 720.22Z" stroke="#9D7935" stroke-width="4" mask="url(#path-1-inside-1_485_1032)"/>
<path d="M-61.9027 881.239C-14.3327 833.75 33.1281 786.153 80.7527 738.664C128.241 786.207 175.756 833.723 223.299 881.239C188.216 916.404 153.05 951.487 117.94 986.625C145.618 1014.28 173.242 1041.98 200.948 1069.58C221.796 1048.79 242.562 1027.88 263.464 1007.15C265.377 1005.01 270.104 1001.6 266.278 998.784C245.786 978.073 225.047 957.58 204.5 936.924C216.932 924.546 229.31 912.141 241.687 899.709C275.76 933.618 309.668 967.69 343.686 1001.63C296.17 1049.2 248.655 1096.74 201.085 1144.23C171.767 1115.05 142.667 1085.59 113.24 1056.55C95.6438 1039.74 65.2876 1039.8 47.8553 1056.79C18.6193 1085.86 -10.4801 1115.1 -39.6615 1144.23C-87.2315 1096.74 -134.747 1049.2 -182.262 1001.65C-148.245 967.608 -114.2 933.563 -80.1821 899.545C-67.7226 911.896 -55.3724 924.355 -42.913 936.733C-64.4711 958.373 -86.1112 979.876 -107.642 1001.52C-84.9637 1024.11 -62.3672 1046.85 -39.6615 1069.42C-11.9829 1041.76 15.6684 1014.11 43.2923 986.434C8.23639 951.378 -26.8468 916.322 -61.9027 881.239ZM14.9032 878.998C11.1599 881.676 16.4062 884.599 17.9363 886.703C38.866 907.469 59.659 928.372 80.5067 949.192C103.267 926.541 125.973 903.808 148.651 881.047C126 858.423 103.349 835.799 80.7527 813.121C58.7847 835.062 36.762 856.975 14.9032 878.998Z" stroke="#9D7935" stroke-width="4" mask="url(#path-1-inside-1_485_1032)"/>
<path d="M35.1139 1112.59C47.6826 1103.13 59.3224 1089.28 76.5089 1089.74C94.1598 1088.73 106.291 1102.86 119.079 1112.61C119.106 1149.39 119.106 1186.2 119.106 1223C91.0721 1222.95 63.0656 1223.03 35.0865 1222.95C35.1411 1186.17 35.0592 1149.36 35.1139 1112.59Z" stroke="#9D7935" stroke-width="4" mask="url(#path-1-inside-1_485_1032)"/>
</g>
</svg>
