<svg width="22" height="23" viewBox="0 0 22 23" fill="none" xmlns="http://www.w3.org/2000/svg">
<path d="M3 7.41051C3 6.19707 3 5.59034 3.29067 5.12687C3.5464 4.71919 3.95413 4.38773 4.456 4.17999C5.0264 3.94385 5.77307 3.94385 7.26667 3.94385H14.7333C16.2269 3.94385 16.9736 3.94385 17.544 4.17999C18.0459 4.38773 18.4536 4.71919 18.7093 5.12687C19 5.59034 19 6.19707 19 7.41051V13.4772C19 14.6906 19 15.2974 18.7093 15.7608C18.4536 16.1685 18.0459 16.5 17.544 16.7077C16.9736 16.9438 16.2269 16.9438 14.7333 16.9438H7.26667C5.77307 16.9438 5.0264 16.9438 4.456 16.7077C3.95413 16.5 3.5464 16.1685 3.29067 15.7608C3 15.2974 3 14.6906 3 13.4772V7.41051Z" stroke="black" stroke-width="1.56" stroke-linecap="round" stroke-linejoin="round"/>
<path d="M3 19.9438H19" stroke="black" stroke-width="1.56" stroke-linecap="round" stroke-linejoin="round"/>
</svg>