<svg width="50" height="46" viewBox="0 0 50 46" fill="none" xmlns="http://www.w3.org/2000/svg">
<path d="M30.625 20.845C30.625 21.3423 30.4275 21.8192 30.0758 22.1708C29.7242 22.5224 29.2473 22.72 28.75 22.72H21.25C20.7527 22.72 20.2758 22.5224 19.9242 22.1708C19.5725 21.8192 19.375 21.3423 19.375 20.845C19.375 20.3477 19.5725 19.8708 19.9242 19.5191C20.2758 19.1675 20.7527 18.97 21.25 18.97H28.75C29.2473 18.97 29.7242 19.1675 30.0758 19.5191C30.4275 19.8708 30.625 20.3477 30.625 20.845ZM49.375 11.47V41.47C49.375 42.4645 48.9799 43.4184 48.2766 44.1216C47.5734 44.8249 46.6196 45.22 45.625 45.22H4.375C3.38044 45.22 2.42661 44.8249 1.72335 44.1216C1.02009 43.4184 0.625 42.4645 0.625 41.47V11.47C0.625 10.4754 1.02009 9.52158 1.72335 8.81832C2.42661 8.11506 3.38044 7.71997 4.375 7.71997H13.75V5.84497C13.75 4.35313 14.3426 2.92239 15.3975 1.8675C16.4524 0.812603 17.8832 0.219971 19.375 0.219971H30.625C32.1168 0.219971 33.5476 0.812603 34.6025 1.8675C35.6574 2.92239 36.25 4.35313 36.25 5.84497V7.71997H45.625C46.6196 7.71997 47.5734 8.11506 48.2766 8.81832C48.9799 9.52158 49.375 10.4754 49.375 11.47ZM17.5 7.71997H32.5V5.84497C32.5 5.34769 32.3025 4.87078 31.9508 4.51915C31.5992 4.16752 31.1223 3.96997 30.625 3.96997H19.375C18.8777 3.96997 18.4008 4.16752 18.0492 4.51915C17.6975 4.87078 17.5 5.34769 17.5 5.84497V7.71997ZM45.625 21.2223V11.47H4.375V21.2223C10.7036 24.6671 17.7946 26.4713 25 26.47C32.2054 26.4713 39.2964 24.6671 45.625 21.2223Z" fill="#0D0D0D"/>
</svg>
