<svg width="54" height="54" viewBox="0 0 54 54" fill="none" xmlns="http://www.w3.org/2000/svg">
<path fill-rule="evenodd" clip-rule="evenodd" d="M45.55 8.11875C40.5813 3.15 33.9562 0.5 27 0.5C12.425 0.5 0.5 12.425 0.5 27C0.5 31.6375 1.82502 36.275 4.14377 40.25L0.5 53.5L14.4125 49.8562C18.3875 51.8438 22.6938 53.1687 27 53.1687C41.575 53.1687 53.5 41.2437 53.5 26.6687C53.5 19.7125 50.5188 13.0875 45.55 8.11875ZM27 48.8625C23.025 48.8625 19.05 47.8688 15.7375 45.8813L15.075 45.55L6.79373 47.8687L9.11252 39.9187L8.44998 38.925C6.13123 35.2812 5.13748 31.3063 5.13748 27.3313C5.13748 15.4063 15.075 5.46875 27 5.46875C32.9625 5.46875 38.2625 7.7875 42.5688 11.7625C46.875 16.0687 48.8625 21.3688 48.8625 27.3313C48.8625 38.925 39.2562 48.8625 27 48.8625ZM38.925 32.3C38.2625 31.9688 34.95 30.3125 34.2875 30.3125C33.625 29.9813 33.2937 29.9813 32.9625 30.6438C32.6312 31.3063 31.3063 32.6312 30.975 33.2937C30.6438 33.625 30.3125 33.625 29.65 33.625C28.9875 33.2938 27 32.6312 24.35 30.3125C22.3625 28.6562 21.0375 26.3375 20.7063 25.675C20.375 25.0125 20.7063 24.6812 21.0375 24.35C21.3688 24.0187 21.7 23.6875 22.0312 23.3562C22.3625 23.025 22.3625 22.6938 22.6938 22.3625C23.025 22.0313 22.6938 21.7 22.6938 21.3688C22.6938 21.0375 21.3688 17.725 20.7063 16.4C20.375 15.4063 19.7125 15.4062 19.3813 15.4062C19.05 15.4062 18.7187 15.4062 18.0562 15.4062C17.725 15.4062 17.0625 15.4062 16.4 16.0687C15.7375 16.7312 14.0813 18.3875 14.0813 21.7C14.0813 25.0125 16.4 27.9937 16.7312 28.6562C17.0625 28.9875 21.3687 35.9437 27.9937 38.5938C33.625 40.9125 34.6188 40.25 35.9438 40.25C37.2688 40.25 39.9188 38.5938 40.25 37.2688C40.9125 35.6125 40.9125 34.2875 40.5813 34.2875C40.25 32.6313 39.5875 32.6313 38.925 32.3Z" fill="#9D7935"/>
</svg>
